<svg style="width: auto; height: 1em;" width="24" height="24" viewBox="0 0 24 24" fill="none" xmlns="http://www.w3.org/2000/svg">
<path fill-rule="evenodd" clip-rule="evenodd" d="M20.5 18.5C20.5 20.6422 18.816 22.3911 16.6996 22.4951L16.5 22.5V20.5C17.5544 20.5 18.4182 19.6841 18.4945 18.6493L18.5 18.5V17H15.5V11H18.5V9.93916C18.5 6.38474 15.5917 3.5 12 3.5C8.48641 3.5 5.62677 6.26068 5.5041 9.70832L5.5 9.93916V11H8.5V17H3.5V9.93916C3.5 5.27651 7.30739 1.5 12 1.5C16.6073 1.5 20.3613 5.14043 20.4962 9.68573L20.5 9.93916V18.5ZM5.5 15H6.5V13H5.5V15ZM17.5 13H18.5V15H17.5V13Z" fill="#666666">
</path>
<rect width="24" height="24" fill="white" fill-opacity="0.01">
</rect>
</svg>