<svg style="width: auto; height: 1em;" width="24" height="24" viewBox="0 0 24 24" fill="none" xmlns="http://www.w3.org/2000/svg">
<path fill-rule="evenodd" clip-rule="evenodd" d="M20.4101 5.14123C18.2271 2.95292 14.6885 2.95292 12.5054 5.14123L12 5.64801L11.4946 5.14123L11.3096 4.96394C9.11597 2.95461 5.71228 3.01371 3.58986 5.14123C1.4068 7.33016 1.53425 10.4433 3.58986 13.0672C3.62723 13.1149 3.66603 13.1637 3.70618 13.2135L3.96287 13.5236L4.24906 13.8551L4.56167 14.2053L4.89763 14.5718L5.43862 15.1461L6.01487 15.7423L6.61599 16.3516L7.64496 17.3723L9.06175 18.7441L10.649 20.2466L12 21.5L12.9244 20.6452L14.1862 19.4601L15.5351 18.1702L16.355 17.3723L17.384 16.3516L17.9851 15.7423L18.5614 15.1461L18.9266 14.7603L19.4383 14.2053L19.7509 13.8551L20.0371 13.5236C20.0825 13.47 20.1266 13.4174 20.1694 13.3657L20.4101 13.0672C22.4657 10.4433 22.5932 7.33016 20.4101 5.14123ZM14.0749 6.4084C15.484 5.15054 17.6427 5.19893 18.9942 6.55374C20.3717 7.93491 20.349 9.9022 18.8357 11.8338C18.7983 11.8816 18.7589 11.9311 18.7175 11.9821L18.4463 12.3071L18.1303 12.6688L17.7713 13.0653L17.371 13.4951L16.697 14.1985L15.94 14.9672L15.1189 15.783L14.3742 16.5104C13.6183 17.2438 12.8318 17.992 12.0452 18.7294L12 18.771L11.1694 17.9894C10.3862 17.2476 9.61337 16.5036 8.88111 15.783L8.32972 15.237L7.79877 14.7041L7.06878 13.9565L6.62896 13.4951L6.22867 13.0653L5.86966 12.6688L5.55369 12.3071L5.28251 11.9821L5.16426 11.8338C3.65102 9.9022 3.62831 7.93491 5.00597 6.55354C6.40739 5.14875 8.67704 5.14875 10.0787 6.55374L12 8.48025L13.9215 6.55354L14.0749 6.4084Z" fill="#777777">
</path>
<rect width="24" height="24" fill="white" fill-opacity="0.01">
</rect>
</svg>