<svg style="width: auto; height: 1em;" width="24" height="24" viewBox="0 0 24 24" fill="none" xmlns="http://www.w3.org/2000/svg">
<path fill-rule="evenodd" clip-rule="evenodd" d="M22 12C22 6.47715 17.5228 2 12 2C6.47715 2 2 6.47715 2 12C2 16.9044 5.5306 20.9842 10.1888 21.8364L10.2073 21.8596L10.2288 21.8436C10.8037 21.9464 11.3956 22 12 22C12.6044 22 13.1963 21.9464 13.7712 21.8436L13.7927 21.8596L13.8112 21.8364C18.4694 20.9842 22 16.9044 22 12ZM9.48444 15.8537C10.3483 15.6211 11.2494 15.5 12.1696 15.5C12.9772 15.5 13.7702 15.5932 14.5375 15.7741C14.148 17.3013 13.5208 18.7232 12.6889 19.9708C12.4618 19.9901 12.2321 20 12 20C11.7686 20 11.5395 19.9902 11.3126 19.9708C10.4939 18.7454 9.87416 17.3511 9.48444 15.8537ZM16.4348 16.4218C16.174 17.4058 15.8256 18.352 15.3959 19.2465C16.3883 18.7798 17.2703 18.1152 17.9897 17.3032C17.4971 16.9627 16.9767 16.6686 16.4348 16.4218ZM6.14146 17.447C6.60478 17.1122 7.09361 16.8176 7.60342 16.5657C7.85961 17.4973 8.19463 18.3944 8.60427 19.2456C7.67084 18.8074 6.8359 18.1941 6.14146 17.447ZM4.97231 8.17575L4.90374 8.30279C4.32642 9.4086 4 10.6662 4 12C4 13.3859 4.3524 14.6894 4.97247 15.826C5.66473 15.3241 6.40529 14.8984 7.18246 14.5535C7.06166 13.7341 7 12.8958 7 12.0465C7 11.1672 7.06605 10.2996 7.1948 9.45162C6.41343 9.10615 5.66872 8.67876 4.97231 8.17575ZM19.1091 8.35682L19.1205 8.3495C19.6827 9.44397 20 10.6849 20 12C20 13.3155 19.6825 14.5568 19.12 15.6507C18.4028 15.1588 17.6378 14.7458 16.8375 14.4181C16.945 13.6415 17 12.8489 17 12.0465C17 11.2141 16.9408 10.3921 16.8244 9.58821C17.6258 9.26041 18.3913 8.84793 19.1091 8.35682ZM9.1219 10.1189L9.08843 10.3966C9.02987 10.939 9 11.4899 9 12.0465C9 12.6682 9.03728 13.2825 9.11013 13.8859C10.0976 13.6313 11.1235 13.5 12.1696 13.5C13.0991 13.5 14.0129 13.6037 14.8977 13.8041C14.9659 13.2283 15 12.6407 15 12.0465C15 11.4212 14.9623 10.8031 14.8886 10.1961C14.006 10.3971 13.0956 10.5 12.1696 10.5C11.1274 10.5 10.1052 10.3696 9.1219 10.1189ZM11.3801 4.02366C11.5847 4.00798 11.7914 4 12 4C12.2086 4 12.4153 4.00798 12.6199 4.02366L12.7006 4.14214C13.5119 5.36184 14.1259 6.74569 14.5141 8.23187C13.7547 8.4086 12.9693 8.5 12.1696 8.5C11.2576 8.5 10.3644 8.38105 9.50609 8.15211C9.92998 6.56899 10.611 5.10194 11.5148 3.82883L11.3801 4.02366ZM15.3368 4.72697L15.4702 5.00355C15.8546 5.8267 16.1705 6.69193 16.4133 7.58842C16.9624 7.33963 17.4901 7.04219 17.9903 6.69899C17.2563 5.86904 16.354 5.19444 15.3368 4.72697ZM8.51189 4.79845L8.66189 4.7277C8.2384 5.58968 7.89126 6.50021 7.62585 7.44635C7.10853 7.19174 6.61244 6.89335 6.14177 6.55191C6.81292 5.83056 7.61571 5.23333 8.51189 4.79845Z" fill="#666666">
</path>
</svg>