<svg style="width: auto; height: 1em;" width="24" height="24" viewBox="0 0 24 24" fill="none" xmlns="http://www.w3.org/2000/svg">
<path fill-rule="evenodd" clip-rule="evenodd" d="M5.34315 5.34315C8.46734 2.21895 13.5327 2.21895 16.6569 5.34315C19.5416 8.22787 19.7627 12.7676 17.3202 15.906L21.6066 20.1924L20.1924 21.6066L15.906 17.3202C12.7676 19.7627 8.22787 19.5416 5.34315 16.6569C2.21895 13.5327 2.21895 8.46734 5.34315 5.34315ZM15.2426 6.75736C12.8995 4.41421 9.1005 4.41421 6.75736 6.75736C4.41421 9.1005 4.41421 12.8995 6.75736 15.2426C9.1005 17.5858 12.8995 17.5858 15.2426 15.2426C17.5858 12.8995 17.5858 9.1005 15.2426 6.75736Z" fill="#FFFFFF">
</path>
</svg>