<svg style="width: auto; height: 1em;" width="24" height="24" viewBox="0 0 24 24" fill="none" xmlns="http://www.w3.org/2000/svg">
<path fill-rule="evenodd" clip-rule="evenodd" d="M12 2.5C14.7614 2.5 17 4.73858 17 7.5C17 10.1888 14.8777 12.3818 12.2169 12.4954L12 12.5C9.23857 12.5 6.99999 10.2614 6.99999 7.5C6.99999 4.81125 9.1223 2.61818 11.7831 2.50462L12 2.5ZM21.5021 21.4996C20.7233 16.957 16.7659 13.5 12.0011 13.5L11.7217 13.504C7.08227 13.636 3.26355 17.046 2.50006 21.4996H21.5021ZM5.38573 19.3125C6.71582 17.0185 9.19993 15.5 12.0011 15.5L12.2548 15.5042C14.9517 15.5927 17.3266 17.088 18.6164 19.3125L18.721 19.499H5.28099L5.38573 19.3125ZM8.99999 7.5C8.99999 5.84315 10.3431 4.5 12 4.5C13.6568 4.5 15 5.84315 15 7.5C15 9.15685 13.6568 10.5 12 10.5C10.3431 10.5 8.99999 9.15685 8.99999 7.5Z" fill="#666666">
</path>
</svg>